<svg data-ds-icon="StakePlinko" width="20" height="20" viewBox="0 0 24 24" xmlns="http://www.w3.org/2000/svg" fill="none" class="inline-block shrink-0"><!----><path fill="currentColor" d="M3.75 16.286c1.519 0 2.75 1.28 2.75 2.857S5.269 22 3.75 22 1 20.72 1 19.143s1.231-2.857 2.75-2.857m8.25 0c1.519 0 2.75 1.28 2.75 2.857S13.519 22 12 22s-2.75-1.28-2.75-2.857 1.231-2.857 2.75-2.857m8.25 0c1.519 0 2.75 1.28 2.75 2.857S21.769 22 20.25 22s-2.75-1.28-2.75-2.857 1.231-2.857 2.75-2.857M7.417 9.62c1.518 0 2.75 1.279 2.75 2.857 0 1.577-1.232 2.857-2.75 2.857s-2.75-1.28-2.75-2.857S5.898 9.62 7.417 9.62m8.25 0c1.518 0 2.75 1.279 2.75 2.857 0 1.577-1.232 2.857-2.75 2.857s-2.75-1.28-2.75-2.857 1.231-2.857 2.75-2.857"></path><path fill="currentColor" fill-rule="evenodd" d="M12 2c1.772 0 3.21 1.492 3.21 3.333 0 1.84-1.438 3.334-3.21 3.334S8.792 7.174 8.792 5.333 10.228 2 12 2m0 1.906c-.76 0-1.375.639-1.375 1.428 0 .79.615 1.428 1.375 1.429.76 0 1.375-.64 1.375-1.429 0-.79-.615-1.428-1.375-1.428" clip-rule="evenodd"></path></svg>